<?xml version="1.0" standalone="no"?>
<!DOCTYPE svg PUBLIC "-//W3C//DTD SVG 20010904//EN"
 "http://www.w3.org/TR/2001/REC-SVG-20010904/DTD/svg10.dtd">
<svg version="1.0" xmlns="http://www.w3.org/2000/svg"
 width="2560.000000pt" height="981.000000pt" viewBox="0 0 2560.000000 981.000000"
 preserveAspectRatio="xMidYMid meet">

<g transform="translate(0.000000,981.000000) scale(0.100000,-0.100000)"
fill="#000000" stroke="none">
<path d="M4230 4915 l0 -4845 595 0 595 0 0 4845 0 4845 -595 0 -595 0 0
-4845z m501 1324 l43 -139 162 -2 163 -3 -125 -90 c-69 -49 -128 -93 -130 -96
-2 -3 19 -74 45 -157 27 -83 43 -149 37 -145 -6 4 -64 45 -129 91 -68 49 -123
82 -132 79 -8 -4 -63 -41 -122 -85 -59 -43 -113 -81 -120 -85 -11 -7 11 73 62
222 13 40 23 76 21 80 -2 3 -60 47 -129 96 l-125 90 161 5 160 5 50 149 c29
87 53 143 57 136 4 -7 27 -75 51 -151z m303 -1109 l47 -150 160 -2 160 -3
-125 -90 c-69 -49 -126 -94 -126 -100 0 -6 20 -73 44 -150 25 -77 43 -141 41
-143 -2 -2 -60 38 -129 88 l-126 92 -125 -92 c-70 -51 -128 -90 -130 -88 -2 2
16 66 40 142 25 76 45 143 45 149 0 7 -56 53 -124 102 l-125 90 159 3 159 2
48 150 c26 82 51 150 54 150 3 0 27 -67 53 -150z m-100 -1300 l158 -5 -118
-85 c-64 -47 -121 -88 -126 -91 -6 -4 11 -69 36 -149 26 -79 45 -147 44 -151
-2 -5 -50 26 -107 67 -58 42 -115 83 -127 90 -21 14 -29 10 -147 -76 -69 -49
-127 -90 -130 -90 -4 0 0 19 9 42 8 22 30 90 48 150 l35 110 -125 91 -125 92
157 5 158 5 49 155 50 155 51 -155 52 -155 158 -5z"/>
<path d="M14405 7559 c-287 -42 -508 -220 -556 -448 -16 -79 -7 -214 20 -283
32 -82 101 -169 189 -238 42 -33 173 -114 290 -181 271 -154 346 -205 415
-279 79 -85 100 -146 95 -272 -4 -88 -9 -106 -42 -172 -80 -162 -222 -230
-476 -229 -162 0 -279 25 -393 82 l-75 38 -7 -86 c-3 -47 -7 -97 -8 -111 -2
-22 5 -27 78 -52 44 -15 120 -34 169 -43 115 -20 342 -20 436 0 269 57 458
223 516 454 23 90 15 255 -15 332 -29 77 -75 143 -144 210 -75 74 -150 124
-399 265 -258 148 -295 173 -361 244 -66 71 -87 126 -87 226 0 185 110 304
322 348 168 35 379 12 549 -58 13 -6 17 8 25 91 7 65 7 100 0 105 -20 13 -176
48 -262 58 -103 11 -194 11 -279 -1z"/>
<path d="M16375 7559 c-467 -63 -809 -369 -926 -827 -42 -163 -47 -384 -14
-573 72 -412 328 -715 704 -833 152 -48 245 -59 456 -53 202 6 313 24 415 68
l52 22 -7 86 c-4 47 -9 89 -11 93 -2 3 -40 -6 -83 -22 -125 -46 -236 -63 -411
-64 -295 -1 -484 68 -656 239 -161 159 -239 340 -264 610 -35 369 97 716 342
900 81 61 203 119 308 145 203 52 529 30 713 -49 l45 -19 9 96 c7 68 6 99 -1
105 -20 13 -140 46 -231 62 -111 20 -346 27 -440 14z"/>
<path d="M6630 6421 l0 -1121 214 0 c354 0 562 25 758 90 349 117 567 355 651
713 29 127 32 487 4 615 -88 400 -320 654 -697 763 -142 42 -234 51 -587 56
l-343 6 0 -1122z m799 905 c328 -85 529 -289 613 -623 20 -78 23 -113 22 -298
0 -195 -2 -217 -27 -309 -76 -282 -241 -456 -517 -546 -115 -37 -283 -60 -492
-67 l-198 -6 0 937 0 938 268 -5 c203 -3 282 -8 331 -21z"/>
<path d="M10230 6751 c0 -867 1 -879 61 -1030 85 -212 248 -357 475 -423 69
-20 101 -23 259 -23 158 0 190 3 259 23 205 59 363 187 450 362 25 52 56 131
68 175 22 79 22 91 26 893 l3 812 -100 0 -100 0 -3 -797 c-4 -735 -5 -803 -22
-863 -59 -213 -195 -352 -396 -406 -88 -23 -271 -24 -360 -1 -203 53 -335 184
-397 393 -16 53 -18 137 -23 864 l-5 805 -97 3 -98 3 0 -790z"/>
<path d="M12130 7445 l0 -95 325 0 325 0 0 -1025 0 -1025 100 0 100 0 0 1025
0 1025 330 0 330 0 0 95 0 95 -755 0 -755 0 0 -95z"/>
<path d="M17490 6420 l0 -1120 100 0 100 0 0 530 0 530 570 0 570 0 0 -530 0
-530 100 0 100 0 0 1120 0 1121 -97 -3 -98 -3 -3 -497 -2 -498 -570 0 -570 0
-2 498 -3 497 -97 3 -98 3 0 -1121z"/>
<path d="M8690 6415 l0 -1115 555 0 555 0 0 90 0 90 -452 2 -453 3 -3 438 -2
437 410 0 410 0 0 90 0 90 -410 0 -410 0 0 405 0 405 435 0 435 0 0 90 0 90
-535 0 -535 0 0 -1115z"/>
<path d="M19622 6418 l3 -1113 553 -3 552 -2 0 90 0 90 -452 2 -453 3 -3 437
-2 438 412 2 413 3 0 85 0 85 -412 3 -413 2 0 405 0 405 435 0 435 0 0 90 0
90 -535 0 -535 0 2 -1112z"/>
<path d="M16845 4490 c-271 -25 -496 -169 -575 -370 -49 -123 -45 -280 9 -396
35 -76 140 -189 230 -248 36 -24 158 -96 271 -161 241 -138 309 -185 377 -258
87 -96 114 -187 95 -314 -28 -176 -124 -283 -307 -340 -48 -14 -91 -18 -215
-17 -177 1 -265 19 -385 78 -38 19 -73 32 -76 28 -4 -4 -10 -53 -13 -108 l-7
-101 93 -31 c141 -46 207 -56 388 -55 194 0 272 16 410 85 215 108 342 327
327 564 -12 175 -97 315 -269 442 -32 23 -165 104 -295 178 -264 151 -310 182
-372 249 -66 72 -86 124 -86 225 1 72 5 95 30 148 59 130 188 201 398 218 132
10 317 -19 439 -70 20 -9 25 4 33 110 l7 81 -74 21 c-128 38 -298 54 -433 42z"/>
<path d="M6630 3346 l0 -1116 273 0 c149 0 313 5 362 11 340 42 553 196 621
450 27 101 23 256 -9 346 -60 172 -224 315 -400 348 -20 4 -37 11 -37 15 0 4
19 12 43 19 257 76 401 335 342 616 -43 203 -178 330 -420 397 -73 20 -109 22
-427 26 l-348 4 0 -1116z m734 905 c127 -42 192 -95 239 -199 31 -68 31 -232
-2 -314 -30 -78 -98 -150 -174 -187 -108 -53 -163 -63 -389 -68 l-208 -5 0
402 0 402 233 -4 c207 -4 239 -7 301 -27z m-65 -971 c206 -42 320 -128 371
-281 18 -53 21 -81 18 -169 -3 -95 -6 -112 -36 -172 -54 -111 -145 -176 -307
-219 -67 -18 -116 -23 -297 -26 l-218 -5 0 452 0 453 188 -7 c120 -4 222 -14
281 -26z"/>
<path d="M8300 3698 c0 -921 2 -940 107 -1141 44 -85 159 -205 245 -255 129
-76 316 -118 493 -109 376 18 627 211 728 558 21 72 21 92 24 892 l4 817 -100
0 -100 0 -3 -802 c-3 -729 -5 -809 -21 -863 -62 -214 -210 -357 -412 -400
-100 -21 -246 -19 -337 4 -211 54 -340 183 -400 398 -22 77 -22 90 -26 871
l-3 792 -99 0 -100 0 0 -762z"/>
<path d="M10470 3345 l0 -1115 95 0 95 0 2 992 3 991 569 -991 570 -992 138 0
138 0 0 1115 0 1115 -95 0 -95 0 0 -990 c0 -545 -3 -990 -7 -990 -5 0 -263
445 -574 988 l-566 987 -136 3 -137 3 0 -1116z"/>
<path d="M12670 3345 l0 -1117 323 5 c426 6 566 31 792 142 290 142 450 355
517 689 28 137 30 409 3 546 -76 398 -296 664 -647 779 -174 58 -227 63 -620
68 l-368 5 0 -1117z m810 902 c265 -69 439 -210 545 -440 115 -250 122 -627
15 -910 -30 -80 -110 -197 -173 -252 -114 -101 -279 -175 -472 -210 -57 -11
-170 -19 -307 -22 l-218 -6 0 938 0 937 258 -5 c233 -4 266 -7 352 -30z"/>
<path d="M14800 3345 l0 -1115 555 0 555 0 0 90 0 90 -455 0 -455 0 0 440 0
440 415 0 415 0 0 85 0 85 -412 2 -413 3 -3 408 -2 407 435 0 435 0 0 90 0 90
-535 0 -535 0 0 -1115z"/>
<path d="M17920 3345 l0 -1115 283 0 c388 0 526 22 700 112 131 68 228 183
273 325 8 26 18 95 21 153 9 176 -34 298 -146 411 -69 69 -166 127 -251 149
-25 6 -52 13 -60 16 -8 3 15 15 51 28 165 58 282 179 325 339 20 72 19 238 -2
307 -61 210 -220 332 -487 375 -67 11 -175 15 -399 15 l-308 0 0 -1115z m737
908 c186 -61 268 -172 266 -358 -1 -146 -51 -249 -154 -317 -114 -74 -231 -98
-480 -98 l-169 0 0 401 0 401 238 -4 c204 -4 246 -8 299 -25z m-221 -953 c230
-18 362 -66 454 -167 73 -80 94 -142 95 -283 0 -109 -2 -119 -32 -182 -54
-116 -151 -187 -312 -230 -62 -17 -116 -21 -298 -25 l-223 -5 0 444 c0 245 3
448 7 451 9 10 158 8 309 -3z"/>
<path d="M19873 3362 c-243 -603 -445 -1105 -449 -1114 -6 -16 3 -18 89 -18
l95 0 124 310 123 310 568 -3 568 -2 119 -303 c65 -167 120 -306 123 -308 2
-3 49 -3 103 -2 l100 3 -451 1113 -450 1112 -110 0 -110 0 -442 -1098z m806
273 c131 -330 236 -603 234 -607 -5 -10 -983 -10 -983 -1 0 5 111 286 247 626
181 452 250 614 256 600 4 -10 115 -288 246 -618z"/>
<path d="M21750 3345 l0 -1115 100 0 100 0 2 991 3 992 569 -992 569 -991 139
0 138 0 0 1115 0 1115 -100 0 -100 0 -2 -989 -3 -989 -566 986 -566 987 -142
3 -141 3 0 -1116z"/>
<path d="M23960 3345 l0 -1115 100 0 100 0 2 561 3 561 545 -561 545 -561 140
0 140 0 -590 590 -590 590 44 44 c23 24 267 259 541 522 l497 479 -124 3 -124
3 -512 -506 -512 -505 -3 505 -2 505 -100 0 -100 0 0 -1115z"/>
<path d="M10950 1414 c-106 -28 -180 -72 -265 -158 -59 -60 -90 -101 -117
-156 -150 -307 -90 -717 133 -913 190 -167 492 -190 717 -55 79 48 173 153
216 240 59 121 79 211 79 373 1 164 -14 235 -75 365 -74 155 -225 276 -386
309 -73 15 -236 13 -302 -5z m313 -175 c65 -33 111 -73 151 -132 169 -245 123
-670 -89 -829 -71 -54 -134 -73 -232 -72 -70 0 -90 5 -146 32 -173 86 -265
276 -254 532 11 281 151 476 357 499 74 8 161 -4 213 -30z"/>
<path d="M12353 1415 c-173 -47 -282 -172 -291 -334 -6 -109 21 -176 102 -256
62 -61 120 -95 267 -155 157 -64 219 -125 227 -224 12 -147 -88 -236 -266
-236 -87 0 -170 18 -251 56 -30 13 -58 21 -62 17 -11 -12 -49 -145 -44 -154
11 -16 141 -60 221 -74 107 -19 152 -19 246 -1 198 38 323 155 346 324 18 133
-20 246 -110 327 -59 53 -100 76 -243 138 -172 75 -225 121 -240 206 -13 79
25 154 98 194 36 19 57 22 152 22 96 -1 118 -4 175 -28 35 -14 67 -23 71 -19
9 10 52 143 48 146 -64 56 -319 85 -446 51z"/>
<path d="M14683 1415 c-116 -32 -213 -107 -260 -204 -24 -49 -28 -68 -28 -146
0 -78 4 -97 28 -147 50 -101 140 -167 338 -248 160 -65 217 -122 226 -228 13
-142 -89 -232 -263 -232 -92 0 -162 15 -243 51 -35 16 -67 29 -70 29 -3 0 -15
-30 -25 -67 -11 -38 -21 -73 -23 -79 -6 -16 85 -57 172 -80 95 -24 268 -25
350 0 133 40 234 125 276 234 34 87 32 208 -4 287 -51 110 -132 174 -321 254
-194 82 -249 134 -250 240 -1 71 28 121 92 159 44 25 55 27 157 27 97 -1 118
-4 178 -29 38 -15 70 -26 71 -24 6 7 46 132 46 144 0 15 -79 48 -148 63 -73
15 -236 13 -299 -4z"/>
<path d="M9425 1415 c-5 -2 -40 -6 -77 -10 l-68 -7 0 -669 0 -669 95 0 95 0 0
290 0 290 93 0 c157 0 235 -38 278 -135 10 -22 36 -112 58 -200 22 -88 46
-178 54 -200 l14 -40 101 -3 100 -3 -19 50 c-10 28 -39 132 -64 232 -25 99
-57 203 -71 230 -24 48 -97 129 -115 129 -21 0 -6 17 36 39 198 105 242 402
84 559 -95 93 -196 122 -429 121 -85 0 -159 -2 -165 -4z m365 -172 c91 -41
132 -107 132 -211 1 -83 -31 -146 -95 -189 -59 -40 -122 -53 -252 -53 l-105 0
0 234 0 235 23 5 c12 2 74 3 137 2 91 -2 125 -7 160 -23z"/>
<path d="M6630 735 l0 -675 380 0 380 0 0 85 0 85 -285 0 -285 0 0 230 0 230
255 0 255 0 0 80 0 80 -255 0 -255 0 0 200 0 200 270 0 270 0 0 80 0 80 -365
0 -365 0 0 -675z"/>
<path d="M7800 997 c0 -230 5 -450 11 -497 37 -303 203 -457 489 -454 241 2
388 106 468 331 l27 78 3 478 3 477 -95 0 -96 0 0 -427 c0 -455 -5 -523 -46
-613 -31 -69 -65 -104 -129 -138 -42 -22 -63 -26 -135 -26 -76 -1 -91 3 -139
29 -61 34 -100 81 -133 164 -23 55 -23 63 -26 534 l-3 477 -99 0 -100 0 0
-413z"/>
<path d="M13083 1403 c3 -4 100 -181 216 -392 l211 -384 0 -283 0 -284 95 0
95 0 0 290 0 289 221 378 c122 208 223 382 226 386 3 4 -46 6 -107 5 l-112 -3
-158 -308 -158 -309 -155 309 -155 308 -112 3 c-61 1 -109 -1 -107 -5z"/>
<path d="M15430 1330 l0 -80 200 0 200 0 2 -592 3 -593 95 0 95 0 3 593 2 592
200 0 200 0 0 80 0 80 -500 0 -500 0 0 -80z"/>
<path d="M16740 735 l0 -675 383 2 382 3 0 80 0 80 -287 3 -288 2 0 230 0 230
260 0 261 0 -3 78 -3 77 -257 3 -258 2 0 200 0 200 275 0 275 0 0 80 0 80
-370 0 -370 0 0 -675z"/>
<path d="M17980 1393 c0 -10 -20 -304 -45 -653 -25 -349 -45 -645 -45 -657 0
-22 3 -23 89 -23 l90 0 5 53 c6 56 42 653 54 902 l7 150 29 -105 c16 -58 95
-303 176 -545 l147 -440 74 0 74 0 137 375 c76 206 163 454 195 550 l58 175 7
-200 c6 -192 31 -660 44 -832 l6 -83 89 0 c48 0 90 3 92 8 3 5 -78 1327 -82
1340 -1 1 -54 2 -118 2 l-118 0 -142 -388 c-78 -213 -161 -452 -185 -531 -40
-137 -43 -143 -52 -110 -39 146 -274 841 -341 1012 -6 15 -22 17 -126 17 -107
0 -119 -2 -119 -17z"/>
</g>
</svg>
