<?xml version="1.0" standalone="no"?>
<!DOCTYPE svg PUBLIC "-//W3C//DTD SVG 20010904//EN"
 "http://www.w3.org/TR/2001/REC-SVG-20010904/DTD/svg10.dtd">
<svg version="1.0" xmlns="http://www.w3.org/2000/svg"
 width="432.000000pt" height="432.000000pt" viewBox="0 0 432.000000 432.000000"
 preserveAspectRatio="xMidYMid meet">

<g transform="translate(0.000000,432.000000) scale(0.100000,-0.100000)"
fill="#000000" stroke="none">
<path d="M2045 4203 c-77 -28 -138 -68 -187 -122 -25 -28 -137 -210 -260 -423
-118 -205 -442 -767 -720 -1248 -278 -481 -513 -899 -523 -928 -13 -41 -16
-77 -13 -155 3 -89 8 -111 35 -170 38 -80 122 -172 191 -210 92 -50 149 -57
485 -57 l307 0 0 145 0 145 -298 0 c-289 0 -299 1 -342 23 -24 12 -52 34 -63
48 -25 35 -37 94 -27 131 5 16 330 586 722 1265 787 1363 736 1285 838 1285
102 0 51 78 838 -1285 392 -679 717 -1249 722 -1265 10 -37 -2 -96 -27 -131
-11 -14 -39 -36 -63 -48 -44 -23 -50 -23 -422 -23 l-378 0 0 -145 0 -145 388
0 c421 0 468 5 564 57 69 38 153 130 191 210 27 58 32 82 35 164 3 71 0 112
-13 155 -24 84 -1442 2539 -1508 2611 -34 36 -73 65 -125 90 -72 36 -81 38
-186 41 -86 2 -122 -2 -161 -15z"/>
<path d="M2480 1955 l0 -735 195 0 195 0 0 735 0 735 -195 0 -195 0 0 -735z"/>
<path d="M1910 1795 l0 -575 200 0 200 0 0 575 0 575 -200 0 -200 0 0 -575z"/>
<path d="M1350 1690 l0 -470 195 0 195 0 0 470 0 470 -195 0 -195 0 0 -470z"/>
<path d="M1730 1035 l0 -145 95 0 95 0 0 145 0 145 -95 0 -95 0 0 -145z"/>
<path d="M2300 1035 l0 -145 95 0 95 0 0 145 0 145 -95 0 -95 0 0 -145z"/>
<path d="M1083 643 c2 -168 5 -192 24 -228 25 -48 58 -80 95 -94 48 -18 152
-24 207 -12 68 14 104 40 138 99 27 46 28 52 31 218 1 95 -1 179 -4 188 -5 13
-21 16 -79 16 l-74 0 -3 -186 c-3 -181 -4 -186 -27 -205 -13 -10 -38 -19 -56
-19 -86 0 -95 24 -95 240 l0 170 -80 0 -81 0 4 -187z"/>
<path d="M1679 826 c-2 -2 -3 -119 -1 -260 l3 -256 143 0 c176 0 240 11 278
47 40 38 54 92 39 142 -11 38 -54 81 -80 81 -18 0 -13 18 7 24 27 9 52 59 52
104 0 51 -34 94 -88 110 -36 11 -343 18 -353 8z m285 -138 c21 -34 -4 -53 -73
-56 l-61 -3 0 41 0 41 61 -3 c46 -2 65 -8 73 -20z m7 -168 c23 -13 25 -53 3
-74 -11 -11 -35 -16 -80 -16 l-64 0 0 50 0 50 61 0 c33 0 69 -5 80 -10z"/>
<path d="M2237 823 c-4 -3 -7 -120 -7 -260 l0 -253 215 0 215 0 0 60 0 60
-135 0 -135 0 0 50 0 50 125 0 125 0 0 60 0 60 -125 0 -125 0 0 30 0 29 133 3
132 3 3 58 3 57 -209 0 c-115 0 -212 -3 -215 -7z"/>
<path d="M2755 818 c-3 -7 -4 -124 -3 -258 l3 -245 78 -3 77 -3 0 84 0 84 83
5 c138 7 192 57 192 180 0 72 -14 102 -69 142 -25 19 -44 21 -192 24 -131 3
-165 1 -169 -10z m258 -120 c26 -19 29 -56 7 -78 -14 -14 -34 -20 -65 -20
l-45 0 0 55 0 55 43 0 c24 0 51 -6 60 -12z"/>
</g>
</svg>
